<svg id="Capa_1" enable-background="new 0 0 512 512" height="512" viewBox="0 0 512 512" width="512" xmlns="http://www.w3.org/2000/svg"><g><g><g><path d="m165.63 55.68c-21.057-36.472-74.958-61.551-111.431-40.494s-41.703 80.276-20.646 116.748 133.076 162.214 169.548 141.157-16.414-180.939-37.471-217.411z" fill="#ffd4d5"/><path d="m168.612 213.351c-39.295-30.99-85.521-85.615-96.089-103.916-10.833-18.764-6.756-48.966 4.177-55.279 10.289-5.942 38.663 4.458 49.958 24.023 10.353 17.931 34.682 85.104 41.954 135.172z" fill="#ffb5c0"/></g><g><path d="m346.37 55.68c21.057-36.472 74.958-61.551 111.431-40.494s41.704 80.277 20.646 116.749c-21.057 36.472-133.076 162.214-169.548 141.157-36.472-21.058 16.414-180.94 37.471-217.412z" fill="#ffedee"/><path d="m343.387 213.357c7.266-50.05 31.606-117.254 41.954-135.178 11.305-19.58 39.676-29.962 49.961-24.022 10.932 6.312 15.008 36.514 4.174 55.278-10.37 17.96-56.407 72.627-96.089 103.922z" fill="#ffb5c0"/></g></g><g><path d="m256.957 228.019c-48.048 0-93.595 22.023-122.936 60.072-18.785 24.361-32.064 50.443-32.064 75.499 0 85.604 69.396 140.909 155 140.909 14.145 0 27.844-1.52 40.864-4.427 8.963-2.001 17.624-4.665 25.862-7.954 52.216-20.845 88.274-66.808 88.274-128.529 0-25.056-13.279-51.138-32.064-75.499-29.341-38.047-74.888-60.071-122.936-60.071z" fill="#ffedee"/><path d="m287.344 202.636-10.772 5.121-3.997-11.239c-2.613-7.348-9.116-11.022-15.618-11.022s-13.005 3.674-15.618 11.022l-3.997 11.239-10.772-5.121c-14.088-6.697-28.785 8-22.088 22.087l5.122 10.618c.003.002.007.004.01.006-29.647 9.403-56.172 27.558-75.593 52.744-18.785 24.361-32.064 50.442-32.064 75.499 0 85.604 69.396 140.909 155 140.909 14.548 0 28.918-1.585 43.026-4.921-15.324-2.356-29.809-7.258-43.026-14.23v-.279c-43.946-23.189-73.272-65.94-73.272-121.479 0-4.31.393-9.03 1.14-14.047 7.864-52.849 47.267-95.54 98.999-108.908l20.487-5.294 5.121-10.619c6.696-14.086-8-28.783-22.088-22.086z" fill="#ffd4d5"/></g><g><g><g><ellipse cx="177.4" cy="406.184" fill="#ffb5c0" rx="29.355" ry="23.377"/></g><g><ellipse cx="336.514" cy="406.184" fill="#ffb5c0" rx="29.355" ry="23.377"/></g></g></g><path d="m276.957 391.057c0-7.797-8.954-14.118-20-14.118s-20 6.321-20 14.118 8.954 17.882 20 17.882 20-10.085 20-17.882z" fill="#ff8e9e"/><g><path d="m425.122 187.187c-15.986 17.45-47.07 49.488-75.626 67.994-4.307 2.793-4.597 8.997-.571 12.179 26.538 20.971 55.532 62.546 55.532 96.231 0 80.722-65.426 133.409-147.5 133.409-80.254 0-147.5-51.646-147.5-133.409 0-7.442 1.334-15.378 3.966-23.588 1.264-3.944-.909-8.167-4.854-9.432-3.942-1.259-8.167.908-9.432 4.854-3.105 9.691-4.681 19.168-4.681 28.166 0 89.551 72.448 148.409 162.5 148.409 89.914 0 162.5-58.711 162.5-148.409 0-36.479-27.943-78.548-53.509-101.494 27.426-19.687 55.276-48.451 70.234-64.777 2.798-3.055 2.59-7.799-.464-10.597-3.051-2.796-7.795-2.59-10.595.464z"/><path d="m176.034 212.272c-7.533-51.867-32.394-119.682-42.881-137.843-12.801-22.174-45.329-35.359-60.203-26.768-15.949 9.208-18.95 44.688-6.922 65.525 10.491 18.167 56.796 73.605 97.939 106.054 5.296 4.175 13.043-.248 12.067-6.968zm-97.015-106.587c-9.332-16.164-4.866-41.397 1.433-45.033 5.564-3.216 29.816 4.135 39.712 21.278 8.849 15.325 27.871 67.257 37.367 112.228-34.195-30.705-69.661-73.144-78.512-88.473z"/><path d="m348.031 219.246c41.146-32.448 87.449-87.892 97.939-106.061 12.104-20.966 8.934-56.369-6.918-65.523-14.944-8.623-47.464 4.696-60.207 26.768-10.49 18.171-35.354 85.995-42.881 137.851-.98 6.749 6.807 11.113 12.067 6.965zm43.805-137.316c9.893-17.131 34.166-24.485 39.716-21.277 6.297 3.636 10.762 28.868 1.429 45.033-8.852 15.331-44.318 57.775-78.514 88.48 9.493-44.966 28.517-96.903 37.369-112.236z"/><path d="m202.008 383.681v-12c0-4.143-3.357-7.5-7.5-7.5s-7.5 3.357-7.5 7.5v12c0 4.143 3.357 7.5 7.5 7.5s7.5-3.358 7.5-7.5z"/><path d="m326.905 383.681v-12c0-4.143-3.357-7.5-7.5-7.5s-7.5 3.357-7.5 7.5v12c0 4.143 3.357 7.5 7.5 7.5s7.5-3.358 7.5-7.5z"/><path d="m282.252 400.16c1.79-3.735.212-8.215-3.523-10.004-3.733-1.79-8.215-.213-10.004 3.523-1.848 3.856-6.482 7.76-11.768 7.76s-9.92-3.903-11.768-7.76c-1.79-3.736-6.27-5.313-10.004-3.523-3.735 1.789-5.313 6.269-3.523 10.004 3.032 6.33 9.397 12.686 17.795 15.173v7.424l-11.701 11.7c-2.929 2.93-2.929 7.678 0 10.607 2.931 2.929 7.678 2.928 10.607 0l8.594-8.594 8.594 8.594c2.931 2.929 7.678 2.928 10.607 0 2.929-2.93 2.929-7.678 0-10.607l-11.701-11.701v-7.423c8.397-2.487 14.763-8.843 17.795-15.173z"/><path d="m427.693 0c-33.513 0-70.445 21.839-87.818 51.929-12.804 22.177-36.481 86.854-46.426 141.595-5.524.256-8.798 2.087-12.595 3.892l-1.213-3.41c-7.591-21.35-37.787-21.323-45.369-.001l-1.213 3.411c-3.794-1.803-7.989-4.172-14.516-3.938-9.945-54.737-33.563-119.281-46.419-141.548-17.372-30.09-54.305-51.93-87.817-51.93-45.026 0-70.603 38.004-70.603 82.978 0 19.075 4.742 37.795 13.354 52.708 15.413 26.696 73.182 93.881 120.067 127.169-13.955 12.705-25.94 28.693-34.835 43.849-2.096 3.572-.899 8.168 2.673 10.265 3.574 2.096 8.169.899 10.265-2.673 10.28-17.519 23.039-33.534 38.948-46.292 4.003-3.21 3.67-9.415-.658-12.175-45.515-29.028-108.173-101.149-123.47-127.643-23.337-40.415-11.753-113.186 44.259-113.186 28.035 0 60.204 19.101 74.828 44.431 12.237 21.195 35.915 86.517 45.142 139.497-8.415 6.888-11.551 18.532-6.549 29.053l5.121 10.618c2.503 5.196 9.765 5.77 13.006.908 1.597-2.395 1.634-5.373.353-7.739l-4.951-10.265c-3.666-7.71 4.359-15.773 12.094-12.095l10.771 5.121c4.018 1.908 8.8-.079 10.287-4.26l3.997-11.239c2.865-8.057 14.242-8.048 17.104.001l3.997 11.238c1.486 4.179 6.267 6.169 10.287 4.26l10.771-5.121c7.841-3.732 15.643 4.633 12.112 12.056l-4.894 10.147c-.628 1.099-.987 2.372-.987 3.729 0 7.942 10.827 10.399 14.271 3.258l5.139-10.656c5.33-11.208 1.354-23.428-8.274-30.205 9.374-52.747 32.842-117.367 44.934-138.31 14.623-25.326 46.792-44.427 74.827-44.427 56.023 0 67.57 72.809 44.259 113.184-4.832 8.369-14.77 21.736-27.262 36.674-2.657 3.178-2.236 7.907.941 10.564 3.178 2.658 7.906 2.235 10.564-.941 13.022-15.571 23.5-29.712 28.746-38.797 8.962-15.518 13.354-34.408 13.354-52.708.001-44.816-25.456-82.976-70.602-82.976z"/></g></g></svg>