<svg id="Capa_1" enable-background="new 0 0 497 497" height="512" viewBox="0 0 497 497" width="512" xmlns="http://www.w3.org/2000/svg"><g><g><g><path d="m158.13 48.18c-21.057-36.472-74.958-61.551-111.431-40.494s-41.703 80.276-20.646 116.748 133.076 162.214 169.548 141.157-16.414-180.939-37.471-217.411z" fill="#ffd4d5"/><path d="m161.112 205.851c-39.295-30.99-85.521-85.615-96.089-103.916-10.833-18.764-6.756-48.966 4.177-55.279 10.289-5.942 38.663 4.458 49.958 24.023 10.353 17.931 34.682 85.104 41.954 135.172z" fill="#ffb5c0"/></g><g><path d="m338.87 48.18c21.057-36.472 74.958-61.551 111.431-40.494s41.704 80.277 20.646 116.749c-21.057 36.472-133.076 162.214-169.548 141.157-36.472-21.058 16.414-180.94 37.471-217.412z" fill="#ffedee"/><path d="m335.887 205.857c7.266-50.05 31.606-117.254 41.954-135.178 11.305-19.58 39.676-29.962 49.961-24.022 10.932 6.312 15.008 36.514 4.174 55.278-10.37 17.96-56.407 72.627-96.089 103.922z" fill="#ffb5c0"/></g></g><g><path d="m249.457 220.519c-48.048 0-93.595 22.023-122.936 60.072-18.785 24.361-32.064 50.443-32.064 75.499 0 85.604 69.396 140.909 155 140.909 14.145 0 27.844-1.52 40.864-4.427 8.963-2.001 17.624-4.665 25.862-7.954 52.216-20.845 88.274-66.808 88.274-128.529 0-25.056-13.279-51.138-32.064-75.499-29.341-38.047-74.888-60.071-122.936-60.071z" fill="#ffedee"/><path d="m279.844 195.136-10.772 5.121-3.997-11.239c-2.613-7.348-9.116-11.022-15.618-11.022s-13.005 3.674-15.618 11.022l-3.997 11.239-10.772-5.121c-14.088-6.697-28.785 8-22.088 22.087l5.122 10.618c.003.002.007.004.01.006-29.647 9.403-56.172 27.558-75.593 52.744-18.785 24.361-32.064 50.442-32.064 75.499 0 85.604 69.396 140.909 155 140.909 14.548 0 28.918-1.585 43.026-4.921-15.324-2.356-29.809-7.258-43.026-14.23v-.279c-43.946-23.189-73.272-65.94-73.272-121.479 0-4.31.393-9.03 1.14-14.047 7.864-52.849 47.267-95.54 98.999-108.908l20.487-5.294 5.121-10.619c6.696-14.086-8-28.783-22.088-22.086z" fill="#ffd4d5"/></g><g><g><g><ellipse cx="169.9" cy="398.684" fill="#ffb5c0" rx="29.355" ry="23.377"/></g><g><ellipse cx="329.014" cy="398.684" fill="#ffb5c0" rx="29.355" ry="23.377"/></g></g></g><g fill="#313d40"><path d="m187.008 356.681c-4.143 0-7.5 3.357-7.5 7.5v12c0 4.143 3.357 7.5 7.5 7.5s7.5-3.357 7.5-7.5v-12c0-4.143-3.358-7.5-7.5-7.5z"/><path d="m311.905 356.681c-4.143 0-7.5 3.357-7.5 7.5v12c0 4.143 3.357 7.5 7.5 7.5s7.5-3.357 7.5-7.5v-12c0-4.143-3.357-7.5-7.5-7.5z"/><path d="m256.957 415.256v-23.816h-15v23.817l-11.701 11.7c-2.929 2.93-2.929 7.678 0 10.607 2.931 2.929 7.678 2.928 10.607 0l8.594-8.594 8.594 8.594c2.931 2.929 7.678 2.928 10.607 0 2.929-2.93 2.929-7.678 0-10.607z"/></g><path d="m269.457 383.557c0-7.797-8.954-14.118-20-14.118s-20 6.321-20 14.118 8.954 17.882 20 17.882 20-10.085 20-17.882z" fill="#ff8e9e"/></g></svg>